PathFileType	4	(X/Y/Z)	D:\TRACE\spotREDO_2-26-24\spot_justBody_Motion_1_2-v60.trc
DataRate	CameraRate	NumFrames	NumMarkers	Units	OrigDataRate	OrigDataStartFrame	OrigNumFrames
100.00	100.00	      28	9	mm	100.00	876	      7000
Frame#	Time	front left toe			Front right toe			aft left toe			aft right toe			Arm			FL body			FR body			AL Body			AR Body			
		X1	Y1	Z1	X2	Y2	Z2	X3	Y3	Z3	X4	Y4	Z4	X5	Y5	Z5	X6	Y6	Z6	X7	Y7	Z7	X8	Y8	Z8	X9	Y9	Z9	

876	8.750	-280.77402	17.82137	-116.18620	241.19604	79.58006	-199.47601	-126.91758	14.54158	346.62686	380.16068	36.45633	326.30127	-77.08454	817.03241	-291.22870	-161.27269	558.41528	-259.83517	-6.60487	560.35242	-281.36887	-50.42902	557.67841	617.21112	97.64611	555.50970	599.00446	
877	8.760	-279.95422	17.77402	-116.29921	242.91403	68.78046	-200.18275	-126.00893	14.57473	346.56699	381.64569	36.64388	326.32898	-75.92768	816.80450	-291.14243	-160.28346	558.35645	-259.61874	-5.44365	560.29767	-281.17883	-49.25799	557.96704	617.37805	98.83620	555.71283	599.01892	
878	8.770	-278.88297	17.65277	-116.18997	244.06387	58.24453	-201.04797	-125.43033	14.88255	346.50021	381.60818	36.55666	326.19019	-74.32108	816.69855	-291.21112	-159.49933	558.25568	-259.51245	-4.33328	560.23248	-281.00516	-48.08282	558.33551	617.46912	99.93693	556.13214	599.27112	
879	8.780	-278.28934	17.69275	-116.45635	245.59334	47.79493	-201.37958	-124.60526	15.14848	346.19791	382.47397	36.79206	326.17004	-73.33507	816.72986	-291.27692	-157.86174	558.27087	-259.10300	-2.93163	560.07776	-280.88367	-47.04122	558.66730	617.54572	101.03973	556.38916	599.49005	
880	8.790	-277.53793	17.77556	-116.64541	246.04506	37.08645	-201.67197	-123.65611	15.30310	346.14285	383.19095	36.92094	326.18964	-72.23419	816.80206	-291.31464	-156.52965	558.21436	-259.04614	-1.98548	560.16516	-280.82834	-45.96787	558.99237	617.64966	102.29967	556.66766	599.69879	
881	8.800	-276.50717	17.49369	-116.70028	246.57831	26.62631	-201.93839	-122.96054	15.50671	346.19781	384.06079	37.06005	326.03796	-70.78797	816.71277	-291.31604	-155.73854	558.38110	-259.02893	-0.66175	560.12195	-280.67798	-45.17275	559.29449	617.71637	103.20791	556.95892	599.86151	
882	8.810	-276.07071	17.41109	-116.79253	248.42050	24.86280	-203.33669	-122.35811	15.64437	346.14627	384.59189	37.22596	325.91971	-69.60844	816.67352	-291.25113	-154.59264	558.36359	-259.01825	0.35299	560.25702	-280.29550	-43.62437	559.48505	618.03625	104.52180	557.01044	600.04163	
883	8.820	-275.00250	17.38409	-116.99229	251.99840	26.94057	-203.03297	-121.60828	14.90901	346.01276	385.32568	37.55084	325.88669	-69.20132	817.30865	-290.83237	-153.51860	559.10925	-258.82791	1.56243	561.37299	-280.24521	-42.80964	559.33527	618.01678	105.42165	557.08484	600.00977	
884	8.830	-274.26788	17.82959	-117.03260	253.76141	27.94830	-201.77811	-120.94698	15.41541	345.96094	386.26962	37.76734	325.59155	-69.22921	818.48987	-290.38113	-152.55492	559.69653	-258.78079	2.32500	562.28613	-280.52426	-41.34370	559.42615	618.23749	106.80161	557.40009	599.98297	
885	8.840	-273.91312	17.92563	-116.98458	254.20738	27.55122	-202.22743	-120.13031	15.92603	345.88306	386.74066	37.88616	325.57538	-68.66953	819.93219	-289.91812	-151.83727	560.34564	-258.60306	2.64113	562.74518	-280.07962	-40.25669	560.04865	618.30872	107.95580	558.17859	600.21552	
886	8.850	-273.29764	17.69888	-116.97038	254.35292	27.46825	-202.15517	-119.43256	16.32934	345.99283	387.54657	38.21334	325.58453	-67.76299	820.33215	-289.78421	-151.15260	560.53992	-258.27628	3.83788	563.13690	-279.95648	-38.87376	560.41766	618.47888	109.37370	558.71387	600.25525	
887	8.860	-272.26196	17.35675	-116.93962	255.12912	27.34143	-202.15913	-118.75226	16.64064	345.92773	389.13330	38.88051	325.21060	-66.94158	820.26941	-289.67255	-150.33598	560.88043	-258.17978	4.45092	563.50354	-280.00937	-37.72865	560.93842	618.59210	110.98304	559.07043	600.51776	
888	8.870	-271.75043	17.28297	-116.95131	256.21283	27.27470	-202.49281	-118.05144	16.88934	345.74829	388.91681	38.32333	325.31836	-66.36480	820.20746	-289.87836	-149.52466	561.16882	-258.29660	5.47751	563.59247	-280.05215	-36.34047	561.25714	618.61298	112.05508	559.46979	600.22607	
889	8.880	-271.08191	17.35492	-116.96674	256.56424	27.24410	-202.51921	-117.37768	16.92838	345.67581	389.59024	38.35250	325.22314	-65.33453	820.08325	-290.05441	-148.61684	561.19702	-258.24255	6.25523	563.66187	-280.06927	-34.83247	561.78497	618.47937	113.17379	559.80725	599.94452	
890	8.890	-270.43689	17.20930	-117.01353	256.81784	27.03375	-202.60637	-116.84522	16.94261	345.65878	390.24509	38.89336	324.86749	-64.67876	820.10999	-290.20203	-147.83760	561.04230	-257.98508	7.08164	563.57935	-280.00894	-34.03268	562.04474	618.31598	114.38345	560.07550	599.88794	
891	8.900	-270.07065	17.27188	-117.12990	257.29349	26.90456	-202.57994	-116.16544	17.23982	345.65564	390.97617	38.54000	325.10791	-63.72233	820.04919	-290.50662	-146.79536	560.91400	-258.14297	7.97028	563.31598	-280.13803	-32.97072	562.36981	618.23535	115.45415	560.50922	599.67267	
892	8.910	-269.66217	17.47671	-117.23813	258.37747	26.57027	-202.68953	-115.48251	17.38124	345.63089	391.41119	38.70095	325.11755	-62.63367	819.87634	-290.77185	-145.78110	560.66797	-258.21063	9.09202	563.05927	-280.45865	-31.93338	562.65881	618.08569	116.11284	560.74347	599.57404	
893	8.920	-268.87537	17.10556	-117.63441	259.33517	26.79669	-202.67474	-115.16355	17.68880	345.44794	391.84729	38.73499	324.94006	-61.43215	819.56018	-290.86856	-145.12688	560.53302	-258.52515	9.86323	562.92725	-280.59457	-31.12738	562.95453	617.93933	116.97946	561.01892	599.64716	
894	8.930	-268.12915	17.01105	-117.74690	260.08865	26.72840	-202.66270	-114.50371	17.68841	345.17136	392.64029	39.28267	324.36224	-60.45374	819.19299	-291.51331	-143.78769	560.17383	-258.75391	11.10194	562.52380	-280.56589	-30.34307	563.16785	617.94861	117.86899	561.31732	599.49261	
895	8.940	-267.99579	17.09689	-117.99879	260.78568	26.58587	-202.79622	-114.12535	17.89217	345.04260	393.15912	39.45435	324.29578	-59.22776	818.76147	-291.86688	-142.73186	559.96179	-259.07672	12.24580	562.28943	-280.76169	-29.58450	563.64929	617.69867	118.46813	561.58154	599.26050	
896	8.950	-267.59546	17.16843	-118.07211	261.22321	26.70585	-202.66968	-113.30910	18.31341	344.83020	393.80566	39.65459	324.35992	-58.40743	818.54810	-292.20474	-141.70032	559.75604	-259.06546	13.11874	562.00250	-281.07419	-28.91467	563.99048	617.35120	119.34353	561.88251	599.01538	
897	8.960	-267.05725	17.04612	-118.23684	261.60309	26.52294	-202.75629	-113.14261	18.44430	344.97446	393.98279	39.49533	324.64777	-57.30722	818.37366	-292.69202	-140.75661	559.42511	-259.43512	14.08687	561.75244	-281.42343	-27.56798	563.59381	616.87531	119.85986	562.10229	598.75720	
898	8.970	-266.54816	16.87547	-118.39433	261.98605	26.12799	-203.01506	-112.86082	18.59338	344.83777	394.00699	39.64442	324.44476	-56.43612	818.07739	-292.98953	-140.01086	559.21844	-259.92429	14.79941	561.55145	-281.69339	-27.10931	563.86591	616.63788	120.41765	562.39697	598.47015	
899	8.980	-266.19699	16.81551	-118.55136	262.49396	25.89293	-202.99280	-112.57799	18.76312	344.60388	394.33524	39.78672	324.37863	-55.74782	817.82813	-293.42874	-139.26047	558.98053	-260.36862	15.76013	561.30743	-282.02060	-26.26266	564.09711	616.52026	121.24361	562.73297	598.20874	
900	8.990	-265.97961	16.96945	-118.63545	263.09036	25.66207	-203.05507	-112.10027	18.71139	344.51691	395.02271	40.39692	324.15433	-54.86805	817.53290	-294.03946	-138.33289	558.73669	-260.74686	16.57767	561.02319	-282.30087	-25.64469	564.48523	616.13501	121.53614	563.12042	597.98401	
901	9.000	-265.51761	17.01011	-118.62867	263.42365	25.51644	-203.17413	-111.55989	18.95890	344.52878	395.42307	40.57778	323.92737	-54.00687	817.25281	-294.38684	-137.73100	558.51721	-261.01785	17.44106	560.83240	-282.56879	-25.09760	564.70776	615.78345	122.06101	563.35321	597.76471	
902	9.010	-265.12549	16.96699	-118.62587	263.58795	25.50806	-203.26993	-111.21309	19.13037	344.50647	396.00693	40.80569	323.80124	-53.49693	816.97687	-294.97501	-136.79967	558.28070	-261.40680	17.99485	560.66730	-282.85019	-24.61813	564.97357	615.41028	122.79208	563.69611	597.39722	
903	9.020	-264.86591	16.89238	-118.65762	263.77811	25.40908	-203.36472	-110.97551	19.26270	344.48492	396.17990	40.81712	323.67874	-52.95249	816.76880	-295.53540	-136.12596	557.90833	-261.79453	18.82446	560.31726	-283.26773	-23.93238	565.39740	615.02795	123.69210	564.11444	596.96765	
